<?xml version="1.0" encoding="UTF-8"?>
<svg version="1.1" xmlns="http://www.w3.org/2000/svg" width="512" height="512">
  <style>
    @media (prefers-color-scheme: dark) {
        :root {
            --background-colour: #000;
            --text-colour: #fff;
        }
    }
    
    @media (prefers-color-scheme: light) {
        :root {
            --background-colour: #fff;
            --text-colour: #000;
        }
    }
  </style>
<path d="M0 0 C168.96 0 337.92 0 512 0 C512 168.96 512 337.92 512 512 C343.04 512 174.08 512 0 512 C0 343.04 0 174.08 0 0 Z " fill="var(--background-colour)" transform="translate(0,0)"/>
<path d="M0 0 C1.0120047 -0.00671722 2.0240094 -0.01343445 3.06668091 -0.02035522 C6.4099825 -0.03934236 9.7530834 -0.04325989 13.09643555 -0.04541016 C15.42425112 -0.05183784 17.75206588 -0.05856618 20.07987976 -0.06558228 C24.95968498 -0.07755703 29.8394194 -0.08126291 34.71923828 -0.08007812 C40.96360131 -0.07987499 47.20750895 -0.10717114 53.45176411 -0.14162254 C58.26026991 -0.16389132 63.06866616 -0.16791565 67.87721825 -0.16685867 C70.17885087 -0.16921488 72.48048651 -0.17803949 74.78206825 -0.19352341 C78.00607546 -0.21318106 81.22910103 -0.20734542 84.453125 -0.1953125 C85.87094017 -0.21217102 85.87094017 -0.21217102 87.31739807 -0.22937012 C94.13477954 -0.16491212 99.50126425 1.23478196 104.66973877 5.8536005 C109.14531057 10.43935891 111.07789105 15.95829759 113.15112305 21.91162109 C113.52867233 22.95628036 113.90622162 24.00093964 114.29521179 25.07725525 C115.51905661 28.47639992 116.72050537 31.88295201 117.9206543 35.29052734 C118.73946975 37.58401925 119.55930154 39.87714855 120.38012695 42.16992188 C122.55406026 48.25820374 124.70843377 54.35326438 126.85726929 60.45043945 C129.25922554 67.26556508 131.67058516 74.07736254 134.0847168 80.88818359 C134.32975889 81.57956043 134.57480099 82.27093727 134.8272686 82.98326492 C139.83878246 97.11571106 144.96050135 111.20712647 150.1081543 125.29052734 C157.54123445 145.632103 164.79475732 166.03115039 171.94604492 186.47338867 C175.86905331 197.67748372 179.8324675 208.86460722 183.8894043 220.02099609 C184.28956253 221.12190582 184.68972076 222.22281555 185.102005 223.35708618 C187.00800008 228.59558732 188.92110574 233.83137282 190.84326172 239.06396484 C191.51887836 240.91419622 192.19441992 242.76445502 192.86987305 244.61474609 C193.33707764 245.87619698 193.33707764 245.87619698 193.8137207 247.16313171 C194.09352783 247.93180069 194.37333496 248.70046967 194.66162109 249.49243164 C194.90631638 250.1578447 195.15101166 250.82325775 195.40312195 251.50883484 C195.9206543 253.29052734 195.9206543 253.29052734 195.9206543 256.29052734 C196.48461914 256.26958008 197.04858398 256.24863281 197.62963867 256.22705078 C200.22645679 256.14304233 202.82298792 256.09160505 205.4206543 256.04052734 C206.3075293 256.00701172 207.1944043 255.97349609 208.1081543 255.93896484 C214.14795177 255.85014429 218.96844992 256.62930189 223.9206543 260.29052734 C227.55201303 265.8510454 227.76154147 271.77832336 226.9206543 278.29052734 C225.68943946 282.32176301 224.26341645 285.22126114 220.93870544 287.86878967 C216.68255675 289.87376793 212.91885258 289.7176435 208.26855469 289.69458008 C206.81888054 289.70487495 206.81888054 289.70487495 205.33992004 289.71537781 C202.14923356 289.73366019 198.95903811 289.72980615 195.76831055 289.72412109 C193.54780416 289.72868221 191.32729918 289.73398757 189.10679626 289.74000549 C184.45395166 289.74893945 179.80127866 289.74651015 175.1484375 289.73657227 C169.18857642 289.72508264 163.22930782 289.74529299 157.26952457 289.7744894 C152.6841201 289.79284359 148.09885781 289.79256045 143.51342583 289.78685188 C141.31620897 289.78669857 139.11898253 289.79275095 136.92180061 289.80514336 C133.84820614 289.82003625 130.7757088 289.80938812 127.70214844 289.79223633 C126.79650146 289.8019043 125.89085449 289.81157227 124.95776367 289.8215332 C119.31436975 289.75565543 116.27322345 288.9462965 111.9206543 285.29052734 C108.15707492 280.44382483 109.20127552 272.10467403 109.61743164 266.22167969 C110.16636952 262.72562603 111.78378398 260.67191806 114.31518555 258.32177734 C118.39263128 255.70268812 122.86242372 256.06955578 127.52612305 255.97412109 C128.27011353 255.95546997 129.014104 255.93681885 129.78063965 255.91760254 C132.55635857 255.84937147 135.33227042 255.78918023 138.1081543 255.72802734 C144.3162793 255.58365234 150.5244043 255.43927734 156.9206543 255.29052734 C150.6506543 236.81052734 144.3806543 218.33052734 137.9206543 199.29052734 C98.6506543 198.96052734 59.3806543 198.63052734 18.9206543 198.29052734 C17.9306543 201.92052734 16.9406543 205.55052734 15.9206543 209.29052734 C15.34274893 211.12248127 14.74613934 212.94894206 14.11132812 214.76196289 C13.79122269 215.68208664 13.47111725 216.60221039 13.14131165 217.55021667 C12.80681503 218.49963638 12.47231842 219.44905609 12.12768555 220.42724609 C11.77679367 221.43269974 11.42590179 222.43815338 11.06437683 223.47407532 C9.95746479 226.64329461 8.84540646 229.81067877 7.7331543 232.97802734 C6.97564982 235.14392303 6.21848525 237.30993763 5.46166992 239.47607422 C3.61858743 244.74893807 1.77129156 250.02031059 -0.0793457 255.29052734 C0.9494873 255.29987305 1.97832031 255.30921875 3.03833008 255.31884766 C6.87421142 255.35887503 10.70930142 255.42466788 14.54467773 255.49804688 C16.20114944 255.52618296 17.85775357 255.54743404 19.5144043 255.56152344 C21.90311105 255.58305625 24.29023815 255.62975489 26.6784668 255.68115234 C27.41308136 255.68238098 28.14769592 255.68360962 28.90457153 255.68487549 C34.02856539 255.82915937 36.95769902 257.08288135 40.9206543 260.29052734 C44.16155303 264.29882704 44.35304191 267.65142416 44.3581543 272.72802734 C44.37749023 274.00548828 44.39682617 275.28294922 44.41674805 276.59912109 C43.74866266 281.57030762 41.76189266 284.35432277 38.35594177 287.9359436 C34.59160441 290.02978683 30.97219215 289.7081145 26.73339844 289.67871094 C25.34005531 289.68659637 25.34005531 289.68659637 23.91856384 289.69464111 C20.8474751 289.70784649 17.77690459 289.69910028 14.70581055 289.68896484 C12.57116089 289.69098559 10.43651191 289.69389704 8.30186462 289.69766235 C3.82715281 289.70208658 -0.64737937 289.69565199 -5.12207031 289.68164062 C-10.85665934 289.66455917 -16.59082683 289.67438289 -22.32540035 289.69235802 C-26.73404614 289.70320193 -31.14259212 289.69974651 -35.55124092 289.69197464 C-37.66554375 289.68997378 -39.77985564 289.69242788 -41.89414787 289.6994133 C-44.85057423 289.70703646 -47.80631963 289.69541064 -50.76269531 289.67871094 C-51.63610565 289.68478363 -52.50951599 289.69085632 -53.40939331 289.69711304 C-58.11343893 289.6479152 -61.27792959 289.37331285 -65.0793457 286.29052734 C-68.02956788 281.79740998 -68.51143922 278.11050336 -68.5168457 272.79052734 C-68.53618164 271.52208984 -68.55551758 270.25365234 -68.57543945 268.94677734 C-67.87205835 263.76280323 -65.85146166 260.85880065 -61.97387695 257.42724609 C-57.5938109 255.70713918 -53.42304666 255.97469389 -48.7668457 256.10302734 C-47.83549805 256.1165625 -46.90415039 256.13009766 -45.94458008 256.14404297 C-43.65553823 256.179259 -41.36784876 256.23112887 -39.0793457 256.29052734 C-38.91000519 255.62933899 -38.74066467 254.96815063 -38.56619263 254.28692627 C-36.73134854 247.32138384 -34.5022368 240.59215857 -32.0090332 233.83740234 C-31.61570297 232.7603302 -31.22237274 231.68325806 -30.81712341 230.57354736 C-29.5335277 227.06106388 -28.24387432 223.55083649 -26.9543457 220.04052734 C-26.05042287 217.56936374 -25.14702842 215.0980068 -24.24414062 212.62646484 C-22.86360023 208.84748062 -21.482843 205.06857778 -20.1000824 201.29040527 C-15.83453487 189.6343962 -11.60817602 177.96441254 -7.3918457 166.29052734 C-6.69642814 164.36635284 -6.00095282 162.44219922 -5.30541992 160.51806641 C-3.92206105 156.69099774 -2.53894062 152.86384304 -1.15600586 149.03662109 C0.94788763 143.21461325 3.05321645 137.39312511 5.15893555 131.57177734 C5.51079926 130.59902359 5.86266296 129.62626984 6.22518921 128.6240387 C7.99072839 123.74320616 9.75642205 118.86242954 11.5222168 113.98168945 C14.81368941 104.88340733 18.10392809 95.78468496 21.38973999 86.68435669 C22.92592057 82.43001858 24.46281272 78.17593768 25.99975586 73.921875 C26.72553287 71.9123999 27.45096913 69.90280168 28.17602539 67.89306641 C32.34795087 56.32947061 36.56888541 44.78775538 40.9206543 33.29052734 C40.30757416 33.29718918 39.69449402 33.30385101 39.06283569 33.31071472 C32.67125706 33.37718039 26.27977691 33.42237465 19.88793945 33.45532227 C17.50378429 33.47039134 15.11965677 33.49085025 12.7355957 33.5168457 C9.30502493 33.55331071 5.87482129 33.57027287 2.4440918 33.58349609 C1.38137054 33.59897995 0.31864929 33.61446381 -0.77627563 33.63041687 C-6.28765296 33.63166498 -10.36558464 33.49548644 -15.0793457 30.29052734 C-18.96130356 25.83921567 -19.70894442 22.03607061 -19.5793457 16.29052734 C-19.59481445 15.60474609 -19.6102832 14.91896484 -19.6262207 14.21240234 C-19.58736844 9.12275596 -18.40201596 6.11387394 -15.0793457 2.29052734 C-10.33953193 -0.4081325 -5.29490661 -0.00504493 0 0 Z " fill="var(--text-colour)" transform="translate(177.079345703125,111.70947265625)"/>
<path d="M0 0 C1.98 0 3.96 0 6 0 C6.26950218 0.79637627 6.26950218 0.79637627 6.54444885 1.60884094 C14.54635072 25.24890494 22.56906396 48.88039461 30.8125 72.4375 C31.42535842 74.19056957 32.0381518 75.94366187 32.65087891 77.69677734 C33.55051653 80.27048805 34.45016819 82.84419384 35.34988403 85.4178772 C35.93802282 87.10034296 36.52610689 88.78282785 37.11413574 90.46533203 C37.71109816 92.17338325 38.30818738 93.88139015 38.90539551 95.58935547 C40.6551972 100.59577826 42.39860911 105.60434037 44.13265991 110.61624146 C44.66331126 112.14670569 45.1961598 113.67641011 45.73135376 115.20529175 C46.46077556 117.2898647 47.18251441 119.37694256 47.90234375 121.46484375 C48.30960693 122.636521 48.71687012 123.80819824 49.13647461 125.01538086 C50 128 50 128 50 132 C18.65 132 -12.7 132 -45 132 C-43.13487211 125.16119773 -41.25414481 118.49119874 -38.953125 111.8125 C-38.66530655 110.96855682 -38.3774881 110.12461365 -38.08094788 109.25509644 C-37.14084571 106.50216947 -36.19562861 103.75103306 -35.25 101 C-34.58214343 99.04968711 -33.91442128 97.09932818 -33.24682617 95.14892578 C-22.35491092 63.36637444 -11.21405261 31.67010785 0 0 Z " fill="var(--background-colour)" transform="translate(253,145)"/>
</svg>
